<svg xmlns="http://www.w3.org/2000/svg" viewBox="0 0 455.11 255.63"><g id="e3702930-55e5-4e91-97f6-786c56e2fd71" data-name="Layer 2"><g id="b2945f42-0992-4828-9900-2b5525aca475" data-name="Layer 1"><path d="M197.46,208.17H105.33a102.84,102.84,0,0,1,0-205.67H349.78a102.84,102.84,0,0,1,0,205.67H238.89L197.46,249.6Z" fill="#fff"/><path d="M349.78,5a100.34,100.34,0,0,1,0,200.67H237.86l-1.47,1.46L200,243.56V205.67H105.33A100.34,100.34,0,0,1,105.33,5H349.78m0-5H105.33A105.33,105.33,0,0,0,0,105.33H0A105.33,105.33,0,0,0,105.33,210.67H195v45l45-45H349.78A105.33,105.33,0,0,0,455.11,105.33h0A105.33,105.33,0,0,0,349.78,0Z" fill="#002ed9"/><path d="M104.08,152.86l35-99.27h22l35,99.27H177l-26.53-79h-.82l-26.54,79Zm72.06-38.94v14.33H123.83V113.92Z" fill="#002ed9"/><path d="M225.84,152.86H208V53.59h17.82Z" fill="#002ed9"/><path d="M271.5,86.91a45.43,45.43,0,0,1-9.32,15.8,40.49,40.49,0,0,1-15.43,10.53l-7.33-11.18a37.72,37.72,0,0,0,13-8.36,35.34,35.34,0,0,0,8-12,38,38,0,0,0,2.71-13.82v-3.7h11.58v3.7A58.63,58.63,0,0,1,271.5,86.91Zm26.12-18.85h-55V55.92h55Zm4.53,73.35a47.66,47.66,0,0,1-17,14.92,74.09,74.09,0,0,1-25.27,8l-5.34-11.72a67.54,67.54,0,0,0,21.35-6.28q9.22-4.62,14.19-11.07a21.84,21.84,0,0,0,5-13.57v-2.4h13.17v2.4A34.79,34.79,0,0,1,302.15,141.41ZM277.47,61.68h-14.4V42.83h14.4Zm2.67,19a32.68,32.68,0,0,0,8,11,38.66,38.66,0,0,0,12.92,7.71l-6.93,11.38A40.6,40.6,0,0,1,278.56,101a42.17,42.17,0,0,1-9.39-15,51.37,51.37,0,0,1-3-18.07v-3.7h11.32v3.7A31.71,31.71,0,0,0,280.14,80.71Zm35.2,54.57q5,6.41,14.3,11.07A67.43,67.43,0,0,0,351,152.66l-5.35,11.72a74.15,74.15,0,0,1-25.33-8,47.3,47.3,0,0,1-16.94-14.92,34.11,34.11,0,0,1-5.93-19.67v-2.4h12.89v2.4A21.26,21.26,0,0,0,315.34,135.28Zm3.4-21.08H304.27V43.31h14.47ZM335.4,84H314.21V71.49H335.4ZM345.2,125H330.67V41.25H345.2Z" fill="#002ed9"/></g></g></svg>